{
  "accessors": [
    {
      "bufferView": 2,
      "componentType": 5126,
      "count": 22475,
      "max": [
        1.6000000238418579,
        0.80000001192092896,
        1.1599999666213989
      ],
      "min": [
        -1.6000000238418579,
        -0.80000001192092896,
        0
      ],
      "type": "VEC3"
    },
    {
      "bufferView": 2,
      "byteOffset": 269700,
      "componentType": 5126,
      "count": 22475,
      "max": [
        1,
        1,
        1
      ],
      "min": [
        -1,
        -1,
        -1
      ],
      "type": "VEC3"
    },
    {
      "bufferView": 3,
      "componentType": 5126,
      "count": 22475,
      "max": [
        1,
        1,
        1,
        1
      ],
      "min": [
        -1,
        -1,
        -1,
        1
      ],
      "type": "VEC4"
    },
    {
      "bufferView": 1,
      "componentType": 5126,
      "count": 22475,
      "max": [
        3.1800000667572021,
        0.93999999761581421
      ],
      "min": [
        -3.059999942779541,
        -0.86462509632110596
      ],
      "type": "VEC2"
    },
    {
      "bufferView": 0,
      "componentType": 5125,
      "count": 71778,
      "max": [
        22474
      ],
      "min": [
        0
      ],
      "type": "SCALAR"
    }
  ],
  "asset": {
    "extras": {
      "author": "AlexTheSalamander (https://sketchfab.com/AlexTheSalamander)",
      "license": "CC-BY-4.0 (http://creativecommons.org/licenses/by/4.0/)",
      "source": "https://sketchfab.com/3d-models/lego-3bf37ebf060448c8992550c0c76b23dd",
      "title": "Lego"
    },
    "generator": "Sketchfab-4.94.0",
    "version": "2.0"
  },
  "bufferViews": [
    {
      "buffer": 0,
      "byteLength": 287112,
      "byteOffset": 0,
      "name": "floatBufferViews",
      "target": 34963
    },
    {
      "buffer": 0,
      "byteLength": 179800,
      "byteOffset": 287112,
      "byteStride": 8,
      "name": "floatBufferViews",
      "target": 34962
    },
    {
      "buffer": 0,
      "byteLength": 539400,
      "byteOffset": 466912,
      "byteStride": 12,
      "name": "floatBufferViews",
      "target": 34962
    },
    {
      "buffer": 0,
      "byteLength": 359600,
      "byteOffset": 1006312,
      "byteStride": 16,
      "name": "floatBufferViews",
      "target": 34962
    }
  ],
  "buffers": [
    {
      "byteLength": 1365912,
      "uri": "scene.bin"
    }
  ],
  "materials": [
    {
      "doubleSided": true,
      "emissiveFactor": [
        0,
        0,
        0
      ],
      "name": "Wax_Red",
      "pbrMetallicRoughness": {
        "baseColorFactor": [
          0.64313699999999996,
          0.15294099999999999,
          0.15294099999999999,
          1
        ],
        "metallicFactor": 0,
        "roughnessFactor": 0.95770514949999996
      }
    }
  ],
  "meshes": [
    {
      "name": "Body1_Wax (Red)_0",
      "primitives": [
        {
          "attributes": {
            "NORMAL": 1,
            "POSITION": 0,
            "TANGENT": 2,
            "TEXCOORD_0": 3
          },
          "indices": 4,
          "material": 0,
          "mode": 4
        }
      ]
    }
  ],
  "nodes": [
    {
      "children": [
        1
      ],
      "name": "RootNode (gltf orientation matrix)",
      "rotation": [
        -0.70710678118654746,
        -0,
        -0,
        0.70710678118654757
      ]
    },
    {
      "children": [
        2
      ],
      "matrix": [
        0,
        1,
        0,
        0,
        0,
        0,
        -1,
        0,
        -1,
        0,
        0,
        0,
        -8.0465997598366812e-06,
        -5.7999992370605469,
        -5.8000073432922363,
        1
      ],
      "name": "RootNode (model correction matrix)"
    },
    {
      "children": [
        3
      ],
      "matrix": [
        1,
        0,
        0,
        0,
        0,
        0,
        1,
        0,
        0,
        -1,
        0,
        0,
        0,
        0,
        0,
        1
      ],
      "name": "81e8da37be244cf3911594ea54826690.fbx"
    },
    {
      "children": [
        4
      ],
      "name": "RootNode"
    },
    {
      "children": [
        5
      ],
      "name": "Lego v2"
    },
    {
      "children": [
        6
      ],
      "name": "Brick:1"
    },
    {
      "children": [
        7
      ],
      "name": "Brick"
    },
    {
      "children": [
        8
      ],
      "matrix": [
        10,
        0,
        0,
        0,
        0,
        10,
        0,
        0,
        0,
        0,
        10,
        0,
        0,
        0,
        0,
        1
      ],
      "name": "Body1"
    },
    {
      "mesh": 0,
      "name": "Body1_Wax (Red)_0"
    }
  ],
  "scene": 0,
  "scenes": [
    {
      "name": "OSG_Scene",
      "nodes": [
        0
      ]
    }
  ]
}

